<?xml version="1.0" encoding="UTF-8"?>
<svg version="1.1" xmlns="http://www.w3.org/2000/svg" width="1024" height="1024" viewBox="0 0 1024 1024">

<path d="M0 0 C0.91910156 0.46921875 1.83820313 0.9384375 2.78515625 1.421875 C21.49486067 11.56132772 35.75000055 29.61015029 42 50 C50.18662206 79.69627486 37.72869519 108.31988999 23.27587891 133.81396484 C17.50011227 143.70991098 11.31026278 153.39924482 4.62109375 162.703125 C2.77535358 165.31829421 1.05092202 167.99987822 -0.6875 170.6875 C-5.23413995 177.54270519 -10.35435137 183.88131066 -15.56005859 190.23974609 C-16.87605011 191.84847767 -18.18266361 193.46486906 -19.48828125 195.08203125 C-21.63923458 197.73821714 -23.8179769 200.36933664 -26 203 C-26.69996094 203.88300781 -27.39992188 204.76601563 -28.12109375 205.67578125 C-28.80300781 206.50464844 -29.48492188 207.33351563 -30.1875 208.1875 C-30.77917969 208.92355469 -31.37085938 209.65960938 -31.98046875 210.41796875 C-34 212 -34 212 -36.9765625 212.52734375 C-40.94605464 211.83499047 -41.80284958 210.57605879 -44.1875 207.375 C-45.33992188 205.86679687 -45.33992188 205.86679687 -46.515625 204.328125 C-46.91845703 203.78607422 -47.32128906 203.24402344 -47.73632812 202.68554688 C-49.46960219 200.37362181 -51.26899159 198.11677239 -53.06567383 195.85400391 C-54.83109863 193.62892143 -56.58433109 191.39488031 -58.3269043 189.15185547 C-59.62263245 187.48535205 -60.92485941 185.82390045 -62.22973633 184.16455078 C-68.44930596 176.21396474 -74.23176054 168.03439304 -79.8125 159.625 C-80.24243256 158.97891785 -80.67236511 158.33283569 -81.11532593 157.66717529 C-100.25020489 128.84174113 -122.48549157 94.01793113 -116.38671875 57.76171875 C-112.11473844 37.08472701 -99.47752015 17.59304294 -81.97265625 5.796875 C-56.94356895 -9.33240247 -26.83634426 -14.35098623 0 0 Z " fill="#3B43FD" transform="translate(549,241)"/>
<path d="M0 0 C2.24609375 2.2578125 2.24609375 2.2578125 4.4375 5.125 C5.20835937 6.115 5.97921875 7.105 6.7734375 8.125 C7.50820313 9.07375 8.24296875 10.0225 9 11 C10.17720884 12.38382101 11.36290873 13.76053599 12.5625 15.125 C15 18 15 18 15 19 C14.32122803 19.09498779 13.64245605 19.18997559 12.94311523 19.2878418 C-20.86741552 24.03057927 -20.86741552 24.03057927 -47.375 44.0625 C-51.17537498 50.93240862 -51.97922736 57.3587989 -50.640625 65.0703125 C-47.84125206 74.41416543 -40.10648511 80.89733083 -31.8125 85.375 C-11.18518246 95.88340211 11.25777129 95.31332681 33.8125 95.4140625 C36.48007161 95.43280432 39.14762762 95.45228782 41.81518555 95.4727478 C48.07616281 95.51916679 54.33715694 95.55608682 60.59821606 95.58942068 C67.73756185 95.62790605 74.87682048 95.67724506 82.0160923 95.72740483 C96.67732723 95.8301747 111.33862482 95.91961013 126 96 C126 96.33 126 96.66 126 97 C125.01 97.33 124.02 97.66 123 98 C123.56847656 97.91621094 124.13695312 97.83242188 124.72265625 97.74609375 C129.77456033 97.07981592 133.93628254 97.27661179 139 98 C141.3109512 97.80505157 143.59236304 97.49599154 145.890625 97.1875 C148 97 148 97 150.8125 97.5 C154.96834512 98.15189727 158.78165514 97.66378948 162.953125 97.25390625 C165.68083679 97.02659693 168.32793017 96.95978574 171.0625 97 C174.90447286 97.20752447 174.90447286 97.20752447 178 96 C178 93.36 178 90.72 178 88 C181.4421339 85.83273051 183.12785733 86.20571432 187 87 C188.485 86.01 188.485 86.01 190 85 C190.33 85.99 190.66 86.98 191 88 C189.68 88.33 188.36 88.66 187 89 C187 96.26 187 103.52 187 111 C187.66 111 188.32 111 189 111 C189 112.32 189 113.64 189 115 C189.639375 114.505 190.27875 114.01 190.9375 113.5 C195.04023483 111.49049723 198.51443582 111.73614328 203 112 C203 112.66 203 113.32 203 114 C204.32 114 205.64 114 207 114 C207.33 113.34 207.66 112.68 208 112 C210.67838111 111.63220459 213.24611734 111.39422275 215.9375 111.25 C216.67935547 111.19457031 217.42121094 111.13914062 218.18554688 111.08203125 C220.12043002 110.96625402 222.06181502 110.97517799 224 111 C226 113 226 113 226.1953125 115.6015625 C226.13020833 118.40104167 226.06510417 121.20052083 226 124 C221.71 123.34 217.42 122.68 213 122 C213.33 123.65 213.66 125.3 214 127 C214.03772913 128.9996441 214.04649906 131.00054061 214 133 C214.66 133 215.32 133 216 133 C216 132.34 216 131.68 216 131 C217.98 131 219.96 131 222 131 C220.515 131.99 220.515 131.99 219 133 C219.99 133.33 220.98 133.66 222 134 C222 134.66 222 135.32 222 136 C222.99 136.33 223.98 136.66 225 137 C217.64815183 139.45061606 209.72820072 139.13890173 202.05859375 139.09765625 C201.05031021 139.0962413 200.04202667 139.09482635 199.00318909 139.09336853 C195.81459458 139.08781605 192.62607292 139.07527261 189.4375 139.0625 C187.26237081 139.05747885 185.08724051 139.05291702 182.91210938 139.04882812 C177.60804849 139.03786223 172.30402945 139.02117214 167 139 C168.05875074 135.59687262 169.00902154 132.98646769 171 130 C171.39013716 128.0103005 171.73202649 126.00980131 172 124 C171.01 124 170.02 124 169 124 C169.33 124.99 169.66 125.98 170 127 C169.01 127 168.02 127 167 127 C166.87625 126.21625 166.7525 125.4325 166.625 124.625 C165.2707816 121.80898488 165.2707816 121.80898488 162.640625 121.22265625 C160.09797096 120.73064551 157.56997021 120.31769004 155 120 C155 120.66 155 121.32 155 122 C154.34 122 153.68 122 153 122 C153 122.66 153 123.32 153 124 C154.32 123.67 155.64 123.34 157 123 C155.35 124.65 153.7 126.3 152 128 C152 127.01 152 126.02 152 125 C151.34 125 150.68 125 150 125 C149.92345464 129.51617599 149.89771304 133.59085217 151 138 C145.0911019 138.90906125 139.41883416 139.05719818 133.44140625 138.9375 C131.05219169 138.71821525 131.05219169 138.71821525 130 140 C156.07 140 182.14 140 209 140 C209 140.33 209 140.66 209 141 C183.4241265 141.09392558 157.84827928 141.16421343 132.27226734 141.20724869 C120.39377346 141.22777215 108.51538747 141.25569447 96.63696289 141.30175781 C86.26969356 141.34194148 75.90250245 141.36750677 65.53515738 141.37635398 C60.05845831 141.38151601 54.58198279 141.39342859 49.10535622 141.42292023 C0.12661647 141.67625944 -54.80215325 139.07429642 -92.58984375 103.56640625 C-102.45454888 93.30776947 -107.44018205 81.27391592 -107.36352539 67.05981445 C-107.20444639 60.91370869 -105.96634952 56.33057436 -103 51 C-102.53722656 50.12085938 -102.07445312 49.24171875 -101.59765625 48.3359375 C-88.65260525 25.86408857 -60.05019438 12.47369174 -36 6 C-5.25967687 -1.93282435 -5.25967687 -1.93282435 0 0 Z " fill="#4B00C6" transform="translate(469,434)"/>
<path d="M0 0 C2.13075113 0.16745741 4.25605673 0.40781845 6.375 0.6875 C7.08495117 0.76967773 7.79490234 0.85185547 8.52636719 0.93652344 C31.34868519 3.61198083 60.59788441 8.6469974 75.875 27.6875 C79.47032019 33.00774259 82.17234154 38.84905755 81.8359375 45.421875 C80.25995124 53.16824814 76.50483102 59.33656931 70.25 64.125 C51.27686501 76.39277001 28.4254018 77.81186185 6.3996582 77.86450195 C5.17511932 77.87107315 3.95058044 77.87764435 2.68893433 77.88441467 C-1.31545273 77.90393747 -5.31980029 77.91577505 -9.32421875 77.92578125 C-10.71485728 77.92983818 -12.10549563 77.93395535 -13.4961338 77.93813133 C-20.02400742 77.95710004 -26.55187022 77.9713578 -33.07976598 77.9797433 C-40.57558515 77.98953734 -48.07111079 78.01594791 -55.56682652 78.05624419 C-61.39310144 78.08647759 -67.21929232 78.10121827 -73.0456441 78.10452431 C-76.51228525 78.10686291 -79.97860969 78.11566958 -83.44516563 78.14098549 C-87.30948563 78.16876306 -91.17342104 78.16441301 -95.0378418 78.1574707 C-96.73459297 78.17668579 -96.73459297 78.17668579 -98.46562195 78.19628906 C-106.62865693 78.14299374 -113.90191963 76.87871175 -120.25 71.4375 C-122.08422059 67.76905883 -122.34530281 64.65699483 -121.625 60.6875 C-119.22074964 54.6768741 -114.5156763 52.70780673 -108.98828125 49.984375 C-100.74948416 46.80751015 -92.92257245 46.4002523 -84.15136719 46.43212891 C-82.93223129 46.42850845 -81.7130954 46.424888 -80.45701599 46.42115784 C-77.82155115 46.41428868 -75.18634289 46.41086444 -72.55089569 46.41310501 C-68.37112123 46.41596081 -64.1915127 46.40150136 -60.01177979 46.38412476 C-48.13173908 46.33731557 -36.25171099 46.31317472 -24.37158203 46.30664062 C-17.7973987 46.30287242 -11.22340485 46.28470512 -4.64930272 46.25154626 C-0.50727276 46.23149991 3.6342629 46.22887826 7.77632093 46.23982644 C10.97888452 46.24308017 14.18128941 46.22026978 17.38378906 46.20166016 C18.51045486 46.20983261 19.63712067 46.21800507 20.79792786 46.22642517 C30.78694037 46.12385626 40.76362146 44.59920449 48.375 37.6875 C49.81930855 34.79888291 49.75188506 32.89102299 49.375 29.6875 C42.38698717 20.1372158 29.27425569 18.00278401 18.375 15.6875 C17.37597656 15.4709375 16.37695312 15.254375 15.34765625 15.03125 C6.1224301 13.27159957 -3.26229429 13.05965776 -12.625 12.6875 C-6.50902619 0.17371028 -6.50902619 0.17371028 0 0 Z " fill="#0397FB" transform="translate(564.625,429.3125)"/>
<path d="M0 0 C9.095625 -0.061875 18.19125 -0.12375 27.5625 -0.1875 C30.42236572 -0.21481201 33.28223145 -0.24212402 36.22875977 -0.27026367 C38.50797097 -0.27902957 40.78718688 -0.28667326 43.06640625 -0.29296875 C44.23973511 -0.30831665 45.41306396 -0.32366455 46.62194824 -0.33947754 C52.85470536 -0.34146651 57.55139856 -0.14981902 63 3 C67.1940392 7.52514756 68.12491018 10.09009275 68.16113281 16.17456055 C68.17074036 17.47318527 68.1803479 18.77181 68.19024658 20.10978699 C68.19509583 21.53542912 68.19937435 22.9610733 68.203125 24.38671875 C68.20887807 25.84682721 68.21463579 27.30693565 68.22039795 28.76704407 C68.23091191 31.83289949 68.23675122 34.89872868 68.24023438 37.96459961 C68.24570406 41.88078981 68.26969725 45.79662968 68.29820633 49.71271038 C68.31689711 52.73172492 68.32204183 55.7506564 68.32357025 58.76972389 C68.32658546 60.21253171 68.33457557 61.65533845 68.34775543 63.09808922 C68.46783185 77.25944432 68.46783185 77.25944432 65 83 C60.61972676 87.16125958 57.35843499 88.12661906 51.42700195 88.11352539 C49.69166199 88.11334412 49.69166199 88.11334412 47.92126465 88.11315918 C46.70588013 88.10804321 45.49049561 88.10292725 44.23828125 88.09765625 C43.12078491 88.09664917 42.00328857 88.09564209 40.85192871 88.09460449 C36.67210872 88.08936715 32.49230335 88.07540592 28.3125 88.0625 C14.2978125 88.0315625 14.2978125 88.0315625 0 88 C0 58.96 0 29.92 0 0 Z " fill="#0E2955" transform="translate(247,623)"/>
<path d="M0 0 C7.47707842 5.43443642 14.98400887 13.15093504 16.62890625 22.55859375 C17.83480348 34.71600667 16.63575823 43.65176426 9.0234375 53.671875 C4.71704414 58.44880065 -0.52480252 61.0516414 -6.37109375 63.55859375 C-7.31984375 63.99171875 -8.26859375 64.42484375 -9.24609375 64.87109375 C-18.48950227 66.90464362 -28.26963254 66.11316553 -36.5234375 61.3046875 C-45.47745539 54.99734668 -51.3529504 47.14221642 -54.37109375 36.55859375 C-55.82679667 26.39640101 -53.07933407 16.96134445 -47.17578125 8.6640625 C-35.59035622 -4.8522667 -15.6730621 -9.52777581 0 0 Z " fill="#FBFCFE" transform="translate(531.37109375,284.44140625)"/>
<path d="M0 0 C1.25668488 0.00565979 2.51336975 0.01131958 3.80813599 0.01715088 C7.132678 0.03570454 10.45610212 0.07157571 13.78033447 0.1159668 C17.1789794 0.15704787 20.5777403 0.17518908 23.9765625 0.1953125 C30.63315895 0.2393592 37.28908284 0.30837903 43.9453125 0.390625 C43.9453125 5.340625 43.9453125 10.290625 43.9453125 15.390625 C27.4453125 15.720625 10.9453125 16.050625 -6.0546875 16.390625 C-6.07758921 24.20519574 -6.09751853 32.019651 -6.10961914 39.83422852 C-6.11466133 42.49503981 -6.12149486 45.15584832 -6.13012695 47.81665039 C-6.14219759 51.63168016 -6.14791679 55.44667344 -6.15234375 59.26171875 C-6.15750504 60.45961533 -6.16266632 61.6575119 -6.16798401 62.89170837 C-6.16805954 63.9927742 -6.16813507 65.09384003 -6.16821289 66.22827148 C-6.17154381 67.6905442 -6.17154381 67.6905442 -6.17494202 69.18235779 C-6.30250335 71.36534616 -6.30250335 71.36534616 -5.0546875 72.390625 C-2.46315643 72.55058666 0.1048327 72.65001197 2.69921875 72.70703125 C3.86238869 72.7382029 3.86238869 72.7382029 5.04905701 72.77000427 C7.53521558 72.83558302 10.02148295 72.89442299 12.5078125 72.953125 C14.18946454 72.99630233 15.87110544 73.03991636 17.55273438 73.08398438 C21.6834837 73.19209781 25.81431117 73.29110831 29.9453125 73.390625 C29.9453125 66.460625 29.9453125 59.530625 29.9453125 52.390625 C22.6853125 52.390625 15.4253125 52.390625 7.9453125 52.390625 C7.9453125 47.440625 7.9453125 42.490625 7.9453125 37.390625 C20.4853125 37.390625 33.0253125 37.390625 45.9453125 37.390625 C45.9453125 54.220625 45.9453125 71.050625 45.9453125 88.390625 C38.24899624 88.51667932 30.55644597 88.63683956 22.85999298 88.7011261 C19.27559471 88.73273074 15.69205627 88.77491482 12.1081543 88.84326172 C8.65214158 88.90875258 5.19695924 88.94439195 1.74037361 88.95988846 C-0.21125078 88.97627003 -2.16254383 89.02306268 -4.11366272 89.07040405 C-14.04837416 89.07415371 -14.04837416 89.07415371 -18.29272461 85.60400391 C-22.52069604 81.34824786 -23.30685689 77.73189148 -23.34521484 71.78955078 C-23.35193207 71.13536163 -23.35864929 70.48117249 -23.36557007 69.80715942 C-23.38452793 67.65000763 -23.38847311 65.49316735 -23.390625 63.3359375 C-23.39705462 61.83145013 -23.4037831 60.32696401 -23.41079712 58.82247925 C-23.42276442 55.67019757 -23.42647853 52.51802544 -23.42529297 49.36572266 C-23.42508984 45.33501147 -23.45238742 41.30500582 -23.48683739 37.27446175 C-23.5091233 34.16711224 -23.51313 31.05993206 -23.51207352 27.95251083 C-23.51442711 26.46700485 -23.5232371 24.98149402 -23.53873825 23.49606705 C-23.55843365 21.41371133 -23.55254839 19.33287072 -23.54052734 17.25048828 C-23.54337738 16.06786407 -23.54622742 14.88523987 -23.54916382 13.66677856 C-22.78483207 8.60269747 -20.23726833 5.53263986 -16.62060547 2.04003906 C-11.15453217 -0.48829116 -5.94742292 -0.1009883 0 0 Z " fill="#0E2954" transform="translate(541.0546875,622.609375)"/>
<path d="M0 0 C18.39657388 -0.16043524 18.39657388 -0.16043524 26.26953125 -0.1953125 C31.63085874 -0.21917621 36.99191162 -0.24733397 42.35302734 -0.30175781 C46.67782592 -0.34538405 51.00232981 -0.36917239 55.32733154 -0.37950897 C56.97308996 -0.38687036 58.61883319 -0.40124534 60.26446533 -0.42292023 C76.52541184 -0.62847754 76.52541184 -0.62847754 83 4 C85.93461818 7.14835684 86.36989057 9.24257014 86.34057617 13.50292969 C86.34034958 14.60376892 86.34012299 15.70460815 86.33988953 16.83880615 C86.32440567 18.02121887 86.30892181 19.20363159 86.29296875 20.421875 C86.28872391 21.63699768 86.28447906 22.85212036 86.28010559 24.10406494 C86.26330876 27.98626839 86.22565338 31.86795336 86.1875 35.75 C86.17245452 38.38150292 86.15876588 41.01301398 86.14648438 43.64453125 C86.11340174 50.09655404 86.06161132 56.5481891 86 63 C81.05 63 76.1 63 71 63 C70.97494385 61.58146729 70.9498877 60.16293457 70.92407227 58.70141602 C70.83019119 53.45896729 70.72992411 48.21665709 70.62768555 42.97436523 C70.58426335 40.70161164 70.54259384 38.42882387 70.50268555 36.15600586 C70.44515881 32.89686768 70.38141448 29.63790269 70.31640625 26.37890625 C70.29969376 25.35599991 70.28298126 24.33309357 70.26576233 23.27919006 C70.2358445 21.86784035 70.2358445 21.86784035 70.20532227 20.42797852 C70.18200584 19.17888451 70.18200584 19.17888451 70.15821838 17.90455627 C70.20571386 15.99033415 70.20571386 15.99033415 69 15 C66.3226862 14.90018786 63.67695825 14.86120125 61 14.875 C60.24976563 14.87113281 59.49953125 14.86726562 58.7265625 14.86328125 C55.06393883 14.52324459 55.06393883 14.52324459 52 16 C51.87767356 17.47250645 51.8222544 18.95065711 51.79467773 20.42797852 C51.77473251 21.36887833 51.75478729 22.30977814 51.73423767 23.27919006 C51.70916893 24.81354958 51.70916893 24.81354958 51.68359375 26.37890625 C51.66281265 27.42070541 51.64203156 28.46250458 51.62062073 29.53587341 C51.55500943 32.87801247 51.49618669 36.22023285 51.4375 39.5625 C51.39432578 41.82227418 51.35071186 44.08204001 51.30664062 46.34179688 C51.19931628 51.89444699 51.09808186 57.44717924 51 63 C46.05 63 41.1 63 36 63 C35.67 47.49 35.34 31.98 35 16 C28.73 15.67 22.46 15.34 16 15 C16 30.84 16 46.68 16 63 C10.72 63 5.44 63 0 63 C0 42.21 0 21.42 0 0 Z " fill="#122D57" transform="translate(413,648)"/>
<path d="M0 0 C5.28 0 10.56 0 16 0 C16.33 15.84 16.66 31.68 17 48 C22.61 48 28.22 48 34 48 C35.57073532 46.42926468 35.16369307 44.84637782 35.20532227 42.66381836 C35.22526749 41.7429393 35.24521271 40.82206024 35.26576233 39.87327576 C35.28247482 38.87224319 35.29918732 37.87121063 35.31640625 36.83984375 C35.3475779 35.31043907 35.3475779 35.31043907 35.37937927 33.75013733 C35.44498852 30.47932952 35.50381234 27.20843863 35.5625 23.9375 C35.60567442 21.72590272 35.64928834 19.51431397 35.69335938 17.30273438 C35.80068145 11.86857564 35.90191645 6.43433302 36 1 C40.62 1 45.24 1 50 1 C50.64373263 4.86239578 51.12931455 8.00218796 51.17700195 11.80859375 C51.19625481 13.16029663 51.19625481 13.16029663 51.21589661 14.53930664 C51.22328354 15.49571045 51.23067047 16.45211426 51.23828125 17.4375 C51.246353 18.43579834 51.25442474 19.43409668 51.26274109 20.46264648 C51.27652895 22.56720264 51.28727462 24.67178066 51.29516602 26.77636719 C51.30672236 28.92552251 51.32723124 31.07464832 51.35668945 33.22363281 C51.39933212 36.33678595 51.41552655 39.44909123 51.42578125 42.5625 C51.44328934 43.51890381 51.46079742 44.47530762 51.47883606 45.46069336 C51.45984372 51.31072543 50.83304622 54.51305239 47 59 C42.76379514 62.72272548 39.22463208 63.12958239 33.69604492 63.17700195 C32.39426804 63.18983719 31.09249115 63.20267242 29.75126648 63.21589661 C28.32767111 63.2240644 26.90407143 63.23150805 25.48046875 63.23828125 C24.76255976 63.24235678 24.04465076 63.2464323 23.30498695 63.25063133 C19.50500401 63.27147473 15.705057 63.28578383 11.9050293 63.29516602 C7.98754504 63.30622634 4.07062944 63.34062603 0.15334606 63.38033772 C-2.86562632 63.40652759 -5.88446367 63.41485991 -8.90353966 63.41844749 C-10.34719368 63.42330747 -11.79084191 63.43490478 -13.23438454 63.45348549 C-15.25873677 63.47792237 -17.28336665 63.47448767 -19.30786133 63.4699707 C-21.03302727 63.47877007 -21.03302727 63.47877007 -22.79304504 63.48774719 C-27.77788745 62.72960032 -30.80413285 60.55502597 -33.85371399 56.58955383 C-35.1370525 53.69038719 -35.36320241 51.72726975 -35.34057617 48.56713867 C-35.34034958 47.50641647 -35.34012299 46.44569427 -35.33988953 45.35282898 C-35.32440567 44.2193251 -35.30892181 43.08582123 -35.29296875 41.91796875 C-35.28872391 40.74865311 -35.28447906 39.57933746 -35.28010559 38.37458801 C-35.26333285 34.645323 -35.22568192 30.91660128 -35.1875 27.1875 C-35.17245141 24.65690885 -35.15876331 22.12630923 -35.14648438 19.59570312 C-35.1134337 13.39692656 -35.06165986 7.19855535 -35 1 C-30.05 1 -25.1 1 -20 1 C-19.97494385 2.38823975 -19.9498877 3.77647949 -19.92407227 5.20678711 C-19.83018916 10.33742153 -19.72992257 15.46791447 -19.62768555 20.59838867 C-19.58426412 22.82263896 -19.54259455 25.04692415 -19.50268555 27.27124023 C-19.44515694 30.46088195 -19.38141316 33.6503468 -19.31640625 36.83984375 C-19.29969376 37.84087631 -19.28298126 38.84190887 -19.26576233 39.87327576 C-19.24581711 40.79415482 -19.22587189 41.71503387 -19.20532227 42.66381836 C-19.18977798 43.47878281 -19.1742337 44.29374725 -19.15821838 45.13340759 C-19.20086137 47.01409119 -19.20086137 47.01409119 -18 48 C-12.39 48 -6.78 48 -1 48 C-0.67 32.16 -0.34 16.32 0 0 Z " fill="#0F2A55" transform="translate(723,648)"/>
<path d="M0 0 C6.42290742 -0.07437011 12.84556201 -0.12870662 19.26879883 -0.16479492 C21.4521115 -0.17984555 23.63539411 -0.20029074 25.81860352 -0.22631836 C28.96378006 -0.26286518 32.10855549 -0.27976398 35.25390625 -0.29296875 C36.2239711 -0.30845261 37.19403595 -0.32393646 38.1934967 -0.33988953 C45.59136753 -0.34171075 50.17910393 0.5191513 55.89819336 5.54882812 C59.01660256 9.70660066 58.69996547 14.21000574 58.62890625 19.21875 C58.63131821 20.19485229 58.63373016 21.17095459 58.63621521 22.17663574 C58.63523854 24.23417231 58.62188819 26.29173575 58.59692383 28.34912109 C58.56260739 31.49017012 58.57627703 34.62840489 58.59570312 37.76953125 C58.58880432 39.77344942 58.57913162 41.77736036 58.56640625 43.78125 C58.57136612 44.71578003 58.57632599 45.65031006 58.58143616 46.61315918 C58.48153851 52.17134374 57.97842746 55.77855649 54 60 C48.58336001 63.15789442 43.77491959 63.47930299 37.59375 63.50390625 C36.71021851 63.51389145 35.82668701 63.52387665 34.91638184 63.53416443 C33.05742038 63.54928086 31.19837832 63.55639224 29.33935547 63.5559082 C26.50742162 63.56248277 23.67897299 63.61706418 20.84765625 63.67382812 C19.03386606 63.68262953 17.22005935 63.68858419 15.40625 63.69140625 C14.56751343 63.7129628 13.72877686 63.73451935 12.86462402 63.75672913 C7.28607252 63.69218408 4.3805469 62.38766661 0.29821777 58.5811615 C-3.11624579 54.42252306 -2.22255433 48.70244866 -2.25 43.625 C-2.270625 42.67882812 -2.29125 41.73265625 -2.3125 40.7578125 C-2.362813 31.80209938 -2.362813 31.80209938 1 28 C6.07485206 24.63487736 12.57945063 25.6664773 18.43652344 25.68432617 C20.62484927 25.68749978 22.81183984 25.66396143 25 25.63867188 C26.38801913 25.63640011 27.77604189 25.63569482 29.1640625 25.63671875 C30.42686035 25.63373779 31.6896582 25.63075684 32.99072266 25.62768555 C33.98378418 25.75054932 34.9768457 25.87341309 36 26 C38.30163882 29.45245824 38.34490322 30.94738713 38 35 C36 37 36 37 33.84521484 37.22705078 C32.97590332 37.21657715 32.1065918 37.20610352 31.2109375 37.1953125 C30.26992188 37.18886719 29.32890625 37.18242188 28.359375 37.17578125 C26.88210938 37.15064453 26.88210938 37.15064453 25.375 37.125 C24.38242187 37.11597656 23.38984375 37.10695313 22.3671875 37.09765625 C19.91135612 37.07404249 17.45564826 37.0381707 15 37 C15 40.63 15 44.26 15 48 C24.24 48 33.48 48 43 48 C42.88034694 43.46082111 42.75780961 38.92191926 42.62768555 34.38305664 C42.58428015 32.83785711 42.54260929 31.29260786 42.50268555 29.74731445 C42.44511801 27.53060904 42.38138576 25.3141552 42.31640625 23.09765625 C42.29969376 22.4028566 42.28298126 21.70805695 42.26576233 20.99220276 C42.43497144 17.71237971 42.43497144 17.71237971 41 15 C37.97192956 14.8396444 34.96414546 14.74039552 31.93359375 14.68359375 C31.02497086 14.66281265 30.11634796 14.64203156 29.18019104 14.62062073 C26.26604054 14.55502328 23.35179696 14.4961932 20.4375 14.4375 C18.46678709 14.39432446 16.49608374 14.35071049 14.52539062 14.30664062 C9.68369012 14.19933157 4.84189563 14.09809325 0 14 C0 9.38 0 4.76 0 0 Z " fill="#0F2B55" transform="translate(609,648)"/>
<path d="M0 0 C0.79237564 -0.0038269 1.58475128 -0.00765381 2.40113831 -0.01159668 C4.06765014 -0.01430394 5.73420533 -0.00702622 7.40063477 0.00976562 C9.93147973 0.03116606 12.4594774 0.00994068 14.99023438 -0.015625 C16.61849577 -0.01298095 18.24675541 -0.00785438 19.875 0 C20.99412025 -0.01214539 20.99412025 -0.01214539 22.135849 -0.02453613 C28.85612356 0.09354792 34.09419912 2.25036369 38.98828125 6.8828125 C41.43027664 12.76122408 40.9179054 18.61751322 40.75390625 24.90625 C40.73585938 26.21464844 40.7178125 27.52304687 40.69921875 28.87109375 C40.65219973 32.09189689 40.58648806 35.31119474 40.50390625 38.53125 C35.41360681 38.6052921 30.32361933 38.65980008 25.23291016 38.69604492 C23.50043276 38.7111509 21.76799371 38.73163694 20.03564453 38.75756836 C17.54840647 38.79387321 15.06167299 38.81095765 12.57421875 38.82421875 C11.79708527 38.83970261 11.01995178 38.85518646 10.2192688 38.87113953 C8.03564453 38.87182617 8.03564453 38.87182617 4.50390625 38.53125 C2.05492778 34.85778229 2.18852909 32.86768601 2.50390625 28.53125 C4.50390625 26.53125 4.50390625 26.53125 6.65869141 26.30419922 C7.52800293 26.31467285 8.39731445 26.32514648 9.29296875 26.3359375 C10.23398437 26.34238281 11.175 26.34882812 12.14453125 26.35546875 C13.129375 26.37222656 14.11421875 26.38898437 15.12890625 26.40625 C16.12148438 26.41527344 17.1140625 26.42429687 18.13671875 26.43359375 C20.59255013 26.45720751 23.04825799 26.4930793 25.50390625 26.53125 C25.00890625 21.08625 25.00890625 21.08625 24.50390625 15.53125 C11.13890625 16.02625 11.13890625 16.02625 -2.49609375 16.53125 C-2.49609375 27.09125 -2.49609375 37.65125 -2.49609375 48.53125 C10.04390625 48.86125 22.58390625 49.19125 35.50390625 49.53125 C35.50390625 54.15125 35.50390625 58.77125 35.50390625 63.53125 C29.06273372 63.65507474 22.62225767 63.74569733 16.18017578 63.8059082 C13.98994881 63.83101434 11.79980531 63.86510637 9.60986328 63.90844727 C6.45714703 63.96926907 3.30554072 63.99749923 0.15234375 64.01953125 C-0.82288239 64.04533768 -1.79810852 64.0711441 -2.80288696 64.09773254 C-7.22906993 64.09954848 -10.47302066 64.05921425 -14.03662109 61.25073242 C-17.37825755 57.55582588 -18.74112906 55.01137744 -18.77075195 50.02563477 C-18.78504997 48.69889488 -18.78504997 48.69889488 -18.79963684 47.34535217 C-18.79872543 46.39736252 -18.79781403 45.44937286 -18.796875 44.47265625 C-18.80116013 43.49135239 -18.80544525 42.51004852 -18.80986023 41.49900818 C-18.81559861 39.42537202 -18.81610742 37.35171573 -18.81176758 35.27807617 C-18.80860881 32.1088622 -18.83206909 28.94058289 -18.85742188 25.77148438 C-18.85969506 23.75520951 -18.86039828 21.73893214 -18.859375 19.72265625 C-18.86858475 18.77669083 -18.87779449 17.8307254 -18.88728333 16.85609436 C-18.82658774 8.20655606 -18.82658774 8.20655606 -15.49609375 4.53125 C-10.26314801 0.75255239 -6.35987048 -0.06883449 0 0 Z " fill="#102B55" transform="translate(353.49609375,647.46875)"/>
<path d="M0 0 C8.353125 -0.061875 8.353125 -0.061875 16.875 -0.125 C19.51024658 -0.15231201 19.51024658 -0.15231201 22.19873047 -0.18017578 C23.58821303 -0.18601593 24.97769901 -0.19111262 26.3671875 -0.1953125 C27.09107666 -0.20554443 27.81496582 -0.21577637 28.56079102 -0.22631836 C30.37542936 -0.22695396 32.18951973 -0.12277575 34 0 C36.57559128 2.57559128 36.25278679 3.5731668 36.25878906 7.15234375 C36.26509338 8.22685791 36.27139771 9.30137207 36.27789307 10.40844727 C36.2738446 11.57303467 36.26979614 12.73762207 36.265625 13.9375 C36.26849518 15.72401978 36.26849518 15.72401978 36.27142334 17.54663086 C36.2727863 20.06852428 36.26908216 22.59042469 36.26074219 25.11230469 C36.25004453 28.98388349 36.26063406 32.85499822 36.2734375 36.7265625 C36.27211593 39.17187603 36.26955358 41.61718927 36.265625 44.0625 C36.26967346 45.2270874 36.27372192 46.3916748 36.27789307 47.59155273 C36.27158875 48.66606689 36.26528442 49.74058105 36.25878906 50.84765625 C36.25719788 51.79648682 36.25560669 52.74531738 36.25396729 53.72290039 C36 56 36 56 34 58 C31.41996628 58.17496218 28.94603704 58.23176368 26.3671875 58.1953125 C25.36764038 58.19229126 25.36764038 58.19229126 24.34790039 58.18920898 C21.85686365 58.17873888 19.36592497 58.15081625 16.875 58.125 C8.521875 58.063125 8.521875 58.063125 0 58 C0 38.86 0 19.72 0 0 Z " fill="#F9FAFC" transform="translate(263,638)"/>
<path d="M0 0 C0.78012451 -0.00287018 1.56024902 -0.00574036 2.36401367 -0.00869751 C4.00798268 -0.01073253 5.6519762 -0.00524202 7.29589844 0.00732422 C9.80459001 0.02338685 12.31167071 0.00745746 14.8203125 -0.01171875 C16.42187854 -0.00973622 18.02344358 -0.00589233 19.625 0 C20.37096436 -0.00607269 21.11692871 -0.01214539 21.88549805 -0.0184021 C26.79232759 0.04748729 30.27808948 0.86402698 33.8125 4.3984375 C33.9739768 6.35410099 34.09065652 8.31351001 34.1875 10.2734375 C34.61902907 20.49017849 34.61902907 20.49017849 38.8125 29.3984375 C39.06458722 33.20431894 38.99772344 37.02269206 39 40.8359375 C39.01224609 41.91166016 39.02449219 42.98738281 39.03710938 44.09570312 C39.03904297 45.12244141 39.04097656 46.14917969 39.04296875 47.20703125 C39.04707764 48.15376709 39.05118652 49.10050293 39.05541992 50.07592773 C38.8125 52.3984375 38.8125 52.3984375 36.8125 54.3984375 C35.4925 54.3984375 34.1725 54.3984375 32.8125 54.3984375 C32.8125 53.7384375 32.8125 53.0784375 32.8125 52.3984375 C29.83675724 51.69577137 29.83675724 51.69577137 26.8125 51.3984375 C26.1525 51.3984375 25.4925 51.3984375 24.8125 51.3984375 C24.64447949 49.94025953 24.47812857 48.4818891 24.3125 47.0234375 C24.2196875 46.21132813 24.126875 45.39921875 24.03125 44.5625 C23.8125 42.3984375 23.8125 42.3984375 23.8125 40.3984375 C25.22873216 40.34396703 26.64558191 40.30543242 28.0625 40.2734375 C28.85140625 40.25023437 29.6403125 40.22703125 30.453125 40.203125 C32.8125 40.3984375 32.8125 40.3984375 36.8125 42.3984375 C36.4825 38.7684375 36.1525 35.1384375 35.8125 31.3984375 C31.97682171 30.43951793 28.98968859 30.29666561 25.0625 30.3359375 C23.30679688 30.34947266 23.30679688 30.34947266 21.515625 30.36328125 C20.62359375 30.37488281 19.7315625 30.38648438 18.8125 30.3984375 C18.1525 31.7184375 17.4925 33.0384375 16.8125 34.3984375 C16.4825 33.7384375 16.1525 33.0784375 15.8125 32.3984375 C15.1525 32.3984375 14.4925 32.3984375 13.8125 32.3984375 C13.8125 31.7384375 13.8125 31.0784375 13.8125 30.3984375 C12.35327307 30.51253343 10.89509402 30.64009294 9.4375 30.7734375 C8.21933594 30.87785156 8.21933594 30.87785156 6.9765625 30.984375 C4.60915809 31.22736338 4.60915809 31.22736338 2.8125 33.3984375 C1.8225 33.3984375 0.8325 33.3984375 -0.1875 33.3984375 C-0.1875 32.0784375 -0.1875 30.7584375 -0.1875 29.3984375 C-0.8475 29.3984375 -1.5075 29.3984375 -2.1875 29.3984375 C-3.19974185 24.52127221 -3.23552149 20.07933859 -2.9375 15.1484375 C-2.89689453 14.06949219 -2.89689453 14.06949219 -2.85546875 12.96875 C-2.734375 10.8828125 -2.734375 10.8828125 -2.1875 7.3984375 C-1.1975 6.7384375 -0.2075 6.0784375 0.8125 5.3984375 C-1.2658269 5.32976734 -1.2658269 5.32976734 -3.5625 5.8984375 C-6.1875 6.3984375 -6.1875 6.3984375 -10.1875 6.3984375 C-10.105 7.3059375 -10.0225 8.2134375 -9.9375 9.1484375 C-10.1875 12.3984375 -10.1875 12.3984375 -11.74609375 14.58984375 C-15.11627109 17.08647113 -17.35307288 16.76515144 -21.5 16.5859375 C-26.57472935 16.39608413 -31.16897921 16.66006662 -36.1875 17.3984375 C-38.17559702 17.14598074 -40.16403964 16.89239655 -42.14453125 16.5859375 C-44.31465593 16.38676736 -46.16185391 16.57072 -48.3125 16.8984375 C-52.1875 17.3984375 -52.1875 17.3984375 -55.0625 16.8984375 C-58.05983026 16.41886466 -60.20076494 16.54181242 -63.1875 16.8984375 C-67.07753811 17.36265655 -70.33677566 17.31045116 -74.1875 16.3984375 C-74.1875 16.0684375 -74.1875 15.7384375 -74.1875 15.3984375 C-66.66470229 14.61305076 -59.20949031 14.22086576 -51.6484375 14.1171875 C-49.50130165 14.07945145 -47.35416625 14.04169034 -45.20703125 14.00390625 C-41.86020865 13.94996515 -38.51336508 13.89768158 -35.16650391 13.84619141 C-31.91040007 13.79470217 -28.65443531 13.73743936 -25.3984375 13.6796875 C-23.88302872 13.65932434 -23.88302872 13.65932434 -22.33700562 13.6385498 C-21.41158966 13.62183228 -20.48617371 13.60511475 -19.53271484 13.58789062 C-18.71539886 13.57536255 -17.89808289 13.56283447 -17.05599976 13.54992676 C-15.17349595 13.60031771 -15.17349595 13.60031771 -14.1875 12.3984375 C-14.025606 10.14091561 -13.93305848 7.88708282 -13.859375 5.625 C-13.1875 3.3984375 -13.1875 3.3984375 -11.15722656 1.78417969 C-7.39979672 0.03087717 -4.06285916 -0.03307463 0 0 Z " fill="#731FE3" transform="translate(658.1875,515.6015625)"/>
<path d="M0 0 C3.95119422 -0.04588484 7.90171066 -0.08571688 11.85302734 -0.10986328 C13.8591136 -0.12488107 15.86511324 -0.15028981 17.87109375 -0.17578125 C19.12792969 -0.18222656 20.38476562 -0.18867187 21.6796875 -0.1953125 C22.84226074 -0.20578613 24.00483398 -0.21625977 25.20263672 -0.22705078 C28 0 28 0 30 2 C31.57413376 7.63374189 32.65455394 13.2842682 31 19 C30 20 30 20 27.13256836 20.11352539 C25.88096924 20.10828857 24.62937012 20.10305176 23.33984375 20.09765625 C22.34314415 20.09553383 22.34314415 20.09553383 21.3263092 20.09336853 C19.19666101 20.08775518 17.06711661 20.07520054 14.9375 20.0625 C13.49674631 20.05748671 12.05599097 20.05292351 10.61523438 20.04882812 C7.07675042 20.03863076 3.53849187 20.0190583 0 20 C0 13.4 0 6.8 0 0 Z " fill="#FAF6FC" transform="translate(658,524)"/>
<path d="M0 0 C0.66 0 1.32 0 2 0 C0.41620664 5.53880278 -2.15611708 10.30649237 -4.9375 15.3125 C-5.66731079 16.63048584 -5.66731079 16.63048584 -6.41186523 17.97509766 C-13.42879989 30.49655062 -21.36715083 42.35048008 -29.80859375 53.94921875 C-31.20474571 55.89288128 -32.56596047 57.86247198 -33.87890625 59.86328125 C-36.59108997 63.87411647 -39.52408444 67.68246088 -42.5 71.5 C-43.41507324 72.675625 -43.41507324 72.675625 -44.34863281 73.875 C-62.27596578 96.75068537 -62.27596578 96.75068537 -66.86328125 97.4140625 C-70 97 -70 97 -72.16796875 95.0859375 C-72.83441406 94.19132812 -73.50085938 93.29671875 -74.1875 92.375 C-74.95578125 91.36953125 -75.7240625 90.3640625 -76.515625 89.328125 C-76.91845703 88.78607422 -77.32128906 88.24402344 -77.73632812 87.68554688 C-79.46960219 85.37362181 -81.26899159 83.11677239 -83.06567383 80.85400391 C-84.83109863 78.62892143 -86.58433109 76.39488031 -88.3269043 74.15185547 C-89.62263245 72.48535205 -90.92485941 70.82390045 -92.22973633 69.16455078 C-98.4494702 61.21375478 -104.22943595 53.03304187 -109.8125 44.625 C-110.24043854 43.98323822 -110.66837708 43.34147644 -111.10928345 42.68026733 C-130.47393926 13.57818221 -130.47393926 13.57818221 -134 3 C-129.54993142 4.49648324 -128.3334882 7.47548433 -126.25 11.5 C-125.32960938 13.24796875 -125.32960938 13.24796875 -124.390625 15.03125 C-123 18 -123 18 -123 20 C-122.34 20 -121.68 20 -121 20 C-119.85170023 22.269616 -118.70628022 24.54060778 -117.5625 26.8125 C-117.07426758 27.77639648 -117.07426758 27.77639648 -116.57617188 28.75976562 C-115.20767324 31.48265466 -113.96516735 34.10449794 -113 37 C-112.34 37 -111.68 37 -111 37 C-109.37890625 39.23046875 -109.37890625 39.23046875 -107.5625 42.1875 C-106.66724609 43.63189453 -106.66724609 43.63189453 -105.75390625 45.10546875 C-104.63648324 46.94959002 -103.53212434 48.80173668 -102.4453125 50.6640625 C-101.18633787 52.69883772 -99.90034328 54.4089248 -98.3125 56.1875 C-96 59 -96 59 -96 61 C-95.01 61 -94.02 61 -93 61 C-92.566875 62.093125 -92.13375 63.18625 -91.6875 64.3125 C-90.46078341 67.16532928 -89.34274083 68.92757542 -87 71 C-84.38124524 74.02164011 -82.06538163 76.90000457 -79.875 80.25 C-78.1230402 83.18879184 -78.1230402 83.18879184 -75 85 C-75 85.66 -75 86.32 -75 87 C-74.34 87 -73.68 87 -73 87 C-72.34 88.98 -71.68 90.96 -71 93 C-70.34 93 -69.68 93 -69 93 C-69 93.66 -69 94.32 -69 95 C-67.05000871 94.80528889 -67.05000871 94.80528889 -65 94 C-64.31513275 92.67592331 -63.65129797 91.34090759 -63 90 C-62.21625 89.38125 -61.4325 88.7625 -60.625 88.125 C-57.65404645 85.71994236 -56.08232429 83.18855907 -54 80 C-53.25105469 79.27296875 -52.50210938 78.5459375 -51.73046875 77.796875 C-47.92997211 73.90394855 -44.95645385 69.53444606 -41.84179688 65.08789062 C-40.60658352 63.35859193 -39.308208 61.67475904 -38 60 C-37.34 60 -36.68 60 -36 60 C-35.773125 59.319375 -35.54625 58.63875 -35.3125 57.9375 C-33.91437453 54.80836205 -32.18909099 52.36076623 -30.12109375 49.6484375 C-28.80867708 47.87939685 -28.80867708 47.87939685 -28 45 C-27.34 45 -26.68 45 -26 45 C-25.731875 44.236875 -25.46375 43.47375 -25.1875 42.6875 C-24.00907376 40.02053536 -23.00851945 39.00851945 -21 37 C-19.98308736 35.00854609 -18.98357352 33.00812926 -18 31 C-17.46375 30.29875 -16.9275 29.5975 -16.375 28.875 C-14.88102994 27.10341283 -14.88102994 27.10341283 -14.5625 25 C-14 23 -14 23 -12.29296875 21.484375 C-8.93943369 17.8509026 -6.97888291 13.6364934 -4.75 9.25 C-4.29109375 8.36183594 -3.8321875 7.47367187 -3.359375 6.55859375 C-2.2327651 4.37578706 -1.11326547 2.18963414 0 0 Z " fill="#6E16E7" transform="translate(579,356)"/>
<path d="M0 0 C3.1875 -0.3125 3.1875 -0.3125 7 0 C9.8125 2.375 9.8125 2.375 12 5 C12.66 5.66 13.32 6.32 14 7 C13.505 5.515 13.505 5.515 13 4 C13.99 3.34 14.98 2.68 16 2 C17.125 3.625 17.125 3.625 18 6 C17.02990133 10.14496704 15.2792471 13.4324828 13 17 C12.67 17.66 12.34 18.32 12 19 C18.38643173 18.88166959 24.77271403 18.75686019 31.15893555 18.62768555 C33.32850318 18.58454946 35.49810012 18.54286074 37.66772461 18.50268555 C40.7981039 18.44446265 43.92833857 18.38092197 47.05859375 18.31640625 C48.01833603 18.29969376 48.97807831 18.28298126 49.96690369 18.26576233 C55.70438289 18.14141329 61.3053069 17.71661834 67 17 C67 17.66 67 18.32 67 19 C61.62449792 20.79907848 57.04659918 21.25655545 51.40258789 21.13525391 C50.57251221 21.12579239 49.74243652 21.11633087 48.88720703 21.10658264 C46.1654554 21.07312061 43.44417997 21.02494757 40.72265625 20.9765625 C38.82695226 20.95037308 36.9312353 20.92510789 35.0355072 20.90072632 C30.06236261 20.83429376 25.08949313 20.75535415 20.11657715 20.67376709 C15.03550725 20.59263325 9.95427669 20.52338641 4.87304688 20.453125 C-5.08482793 20.31368594 -15.04245252 20.16102717 -25 20 C-24.67 19.34 -24.34 18.68 -24 18 C-22.87980469 18.01160156 -21.75960937 18.02320313 -20.60546875 18.03515625 C-19.13281417 18.04453622 -17.66015778 18.0536362 -16.1875 18.0625 C-15.44951172 18.07087891 -14.71152344 18.07925781 -13.95117188 18.08789062 C-10.70077932 18.10259828 -8.10595105 18.03531702 -5 17 C-5.185625 16.13375 -5.37125 15.2675 -5.5625 14.375 C-6.00667933 10.94847372 -5.71954492 8.35787629 -5 5 C-3.68 5 -2.36 5 -1 5 C-0.67 4.67 -0.34 4.34 0 4 C-0.66 4 -1.32 4 -2 4 C-2 3.34 -2 2.68 -2 2 C-1.34 2 -0.68 2 0 2 C0 1.34 0 0.68 0 0 Z " fill="#7301F1" transform="translate(624,554)"/>
<path d="M0 0 C1.77206192 0.00015919 3.54412846 0.00585754 5.31616211 0.01586914 C6.24698105 0.01728409 7.17779999 0.01869904 8.13682556 0.02015686 C11.12241777 0.02577367 14.10793615 0.03832899 17.09350586 0.05102539 C19.11238499 0.05603823 21.13126529 0.06060151 23.15014648 0.06469727 C28.11046158 0.07574856 33.07072118 0.09302444 38.03100586 0.11352539 C39.02100586 2.09352539 39.02100586 2.09352539 40.03100586 4.11352539 C36.03276784 6.01992692 33.04007833 6.29878949 28.63647461 6.09008789 C26.83339844 6.01274414 26.83339844 6.01274414 24.99389648 5.93383789 C23.74801758 5.86938477 22.50213867 5.80493164 21.21850586 5.73852539 C19.95329102 5.68180664 18.68807617 5.62508789 17.38452148 5.56665039 C14.2660894 5.42543837 11.14849381 5.27404731 8.03100586 5.11352539 C8.03100586 4.12352539 8.03100586 3.13352539 8.03100586 2.11352539 C7.37100586 2.77352539 6.71100586 3.43352539 6.03100586 4.11352539 C2.40600586 3.73852539 2.40600586 3.73852539 -0.96899414 3.11352539 C-2.41097282 5.99748276 -2.55732995 8.93783018 -2.96899414 12.11352539 C-6.93742988 13.99447542 -9.97510782 14.30574292 -14.34399414 14.17602539 C-17.96604399 14.11083664 -21.18871749 14.14594359 -24.78149414 14.67602539 C-28.01670864 15.12007444 -30.71511212 14.79787851 -33.92602539 14.30102539 C-36.09615007 14.10185525 -37.94334805 14.28580789 -40.09399414 14.61352539 C-43.96899414 15.11352539 -43.96899414 15.11352539 -46.84399414 14.61352539 C-49.8413244 14.13395255 -51.98225908 14.25690031 -54.96899414 14.61352539 C-58.85903225 15.07774444 -62.1182698 15.02553905 -65.96899414 14.11352539 C-65.96899414 13.78352539 -65.96899414 13.45352539 -65.96899414 13.11352539 C-58.44619643 12.32813865 -50.99098445 11.93595366 -43.42993164 11.83227539 C-41.2827958 11.79453934 -39.13566039 11.75677823 -36.98852539 11.71899414 C-33.64170279 11.66505304 -30.29485922 11.61276947 -26.94799805 11.5612793 C-23.69189421 11.50979006 -20.43592945 11.45252725 -17.17993164 11.39477539 C-15.66452286 11.37441223 -15.66452286 11.37441223 -14.11849976 11.3536377 C-13.1930838 11.33692017 -12.26766785 11.32020264 -11.31420898 11.30297852 C-10.49689301 11.29045044 -9.67957703 11.27792236 -8.8374939 11.26501465 C-6.95499009 11.3154056 -6.95499009 11.3154056 -5.96899414 10.11352539 C-5.76199851 8.61855697 -5.60220155 7.11686619 -5.46899414 5.61352539 C-4.98422542 0.14256412 -4.98422542 0.14256412 0 0 Z " fill="#6C00F4" transform="translate(649.968994140625,517.886474609375)"/>
<path d="M0 0 C7.40681733 -0.02327578 14.81362665 -0.0409922 22.22047329 -0.05181217 C25.66058593 -0.05700789 29.10067335 -0.06404466 32.54077148 -0.07543945 C36.50504239 -0.08848677 40.46930346 -0.09325557 44.43359375 -0.09765625 C45.65582138 -0.10281754 46.87804901 -0.10797882 48.13731384 -0.11329651 C49.87809959 -0.11340981 49.87809959 -0.11340981 51.65405273 -0.11352539 C52.664431 -0.115746 53.67480927 -0.11796661 54.71580505 -0.12025452 C57.31498257 -0.02508269 59.79706345 0.18649556 62.3737793 0.4942627 C66.71667111 1.0049494 70.99571419 1.1701819 75.36547852 1.20532227 C76.53787834 1.22017166 76.53787834 1.22017166 77.73396301 1.23532104 C80.28224807 1.26656308 82.83055168 1.29154363 85.37890625 1.31640625 C87.15966743 1.33700812 88.94042407 1.35800537 90.72117615 1.37937927 C95.3817271 1.4342664 100.04231972 1.48382114 104.70294189 1.53222656 C109.46931616 1.58268699 114.23563081 1.63824425 119.00195312 1.69335938 C128.33458434 1.80053218 137.66726758 1.9020659 147 2 C147 2.33 147 2.66 147 3 C131.85417559 3.03039821 116.70835066 3.05090291 101.5625 3.0625 C100.45235157 3.06335602 99.34220314 3.06421204 98.19841385 3.06509399 C65.78752492 3.08719783 33.39824671 3.00517706 1 2 C0.67 1.34 0.34 0.68 0 0 Z " fill="#6300D2" transform="translate(531,572)"/>
<path d="M0 0 C1.32 0.66 2.64 1.32 4 2 C4.05786668 5.79160297 4.09355054 9.58309311 4.125 13.375 C4.14175781 14.45523438 4.15851562 15.53546875 4.17578125 16.6484375 C4.18222656 17.6796875 4.18867187 18.7109375 4.1953125 19.7734375 C4.20578613 20.72653809 4.21625977 21.67963867 4.22705078 22.66162109 C4 25 4 25 2 27 C0.68 27 -0.64 27 -2 27 C-2 26.34 -2 25.68 -2 25 C-4.97574276 24.29733387 -4.97574276 24.29733387 -8 24 C-8.66 24 -9.32 24 -10 24 C-10.16802051 22.54182203 -10.33437143 21.0834516 -10.5 19.625 C-10.5928125 18.81289063 -10.685625 18.00078125 -10.78125 17.1640625 C-11 15 -11 15 -11 13 C-9.58376784 12.94552953 -8.16691809 12.90699492 -6.75 12.875 C-5.96109375 12.85179687 -5.1721875 12.82859375 -4.359375 12.8046875 C-1.79268059 13.0171622 -0.2083933 13.71345895 2 15 C1.85816304 13.24967156 1.71136571 11.49974466 1.5625 9.75 C1.48128906 8.77546875 1.40007813 7.8009375 1.31640625 6.796875 C1.04925416 4.43538247 0.64628032 2.28098935 0 0 Z " fill="#740CF1" transform="translate(693,543)"/>
<path d="M0 0 C3.07279335 0.63031658 4.35243193 1.11706506 6.4375 3.5 C7.41288336 6.2310734 7.75703441 8.61297856 7.4375 11.5 C5.4375 14.5625 5.4375 14.5625 2.4375 16.5 C-1.41460127 16.56641554 -3.56098005 16.37229157 -6.5 13.8125 C-7.9238395 10.7135552 -8.11403827 8.87817188 -7.5625 5.5 C-5.2433417 2.45196338 -3.8139826 0.74419173 0 0 Z " fill="#F8EAFD" transform="translate(628.5625,556.5)"/>
<path d="M0 0 C6.89729571 7.453002 10.42837642 13.73146188 10.3125 23.9375 C10.30798828 24.68708984 10.30347656 25.43667969 10.29882812 26.20898438 C10.28706354 28.05602383 10.26912865 29.90302213 10.25 31.75 C9.92 31.75 9.59 31.75 9.25 31.75 C9.22421875 30.91597656 9.1984375 30.08195312 9.171875 29.22265625 C8.57251068 17.33072335 5.16741572 8.3394348 -3.5625 0.0234375 C-12.16483393 -7.01798907 -21.89889078 -8.23274197 -32.75 -7.25 C-42.524376 -5.42585518 -50.16960076 0.12958483 -55.75390625 8.2109375 C-56.08261719 8.71882813 -56.41132813 9.22671875 -56.75 9.75 C-57.08 8.76 -57.41 7.77 -57.75 6.75 C-53.03852684 -0.37573736 -45.87435707 -6.48955018 -37.75 -9.25 C-24.21358201 -11.68410362 -10.2901584 -9.72600498 0 0 Z " fill="#2D7FEF" transform="translate(538.75,288.25)"/>
<path d="M0 0 C21.12 0 42.24 0 64 0 C64 0.33 64 0.66 64 1 C62.37191406 1.07347656 62.37191406 1.07347656 60.7109375 1.1484375 C59.26560216 1.22351986 57.82029081 1.29906528 56.375 1.375 C55.66214844 1.4059375 54.94929687 1.436875 54.21484375 1.46875 C50.78442412 1.65758044 48.07044148 1.97583394 44.7890625 3.1015625 C41.57616636 4.13652904 40.24786259 3.68603389 37 3 C35.20842266 2.92223621 33.41432841 2.892046 31.62109375 2.90234375 C30.61755859 2.90556641 29.61402344 2.90878906 28.58007812 2.91210938 C27.54302734 2.92048828 26.50597656 2.92886719 25.4375 2.9375 C23.87612305 2.94426758 23.87612305 2.94426758 22.28320312 2.95117188 C20.35081843 2.95987071 18.41844108 2.97062744 16.48608398 2.98413086 C14.32409356 2.99793125 12.16203447 3 10 3 C8.41471795 3.14697979 6.8311763 3.31397926 5.25 3.5 C4.45078125 3.5928125 3.6515625 3.685625 2.828125 3.78125 C1.92320312 3.88953125 1.92320312 3.88953125 1 4 C0.67 2.68 0.34 1.36 0 0 Z " fill="#6500C0" transform="translate(531,530)"/>
<path d="M0 0 C0 0.66 0 1.32 0 2 C-0.66 2 -1.32 2 -2 2 C-2.10570312 2.59167969 -2.21140625 3.18335938 -2.3203125 3.79296875 C-3.09435376 6.30637858 -4.06714192 7.42819021 -5.875 9.3125 C-8.84247278 12.64116875 -10.44675149 15.78403977 -12 20 C-12.41765625 20.92425781 -12.41765625 20.92425781 -12.84375 21.8671875 C-17.1701404 31.84192092 -14.66833094 40.1999334 -11 50 C-10.32636878 51.99766499 -9.65777128 53.99705682 -9 56 C-8.34 56 -7.68 56 -7 56 C-7 56.99 -7 57.98 -7 59 C-6.34 59 -5.68 59 -5 59 C-5.33 59.99 -5.66 60.98 -6 62 C-15.15192198 51.07870644 -17.82791532 39.91483303 -17.17480469 25.93115234 C-16.36093835 16.93997532 -10.14240239 7.92638648 -4.47265625 1.18359375 C-3 0 -3 0 0 0 Z " fill="#1F0F97" transform="translate(379,471)"/>
<path d="M0 0 C4.45006858 1.49648324 5.6665118 4.47548433 7.75 8.5 C8.67039062 10.24796875 8.67039062 10.24796875 9.609375 12.03125 C11 15 11 15 11 17 C11.66 17 12.32 17 13 17 C14.14829977 19.269616 15.29371978 21.54060778 16.4375 23.8125 C16.92573242 24.77639648 16.92573242 24.77639648 17.42382812 25.75976562 C18.79232676 28.48265466 20.03483265 31.10449794 21 34 C21.66 34 22.32 34 23 34 C24.62109375 36.23046875 24.62109375 36.23046875 26.4375 39.1875 C27.33275391 40.63189453 27.33275391 40.63189453 28.24609375 42.10546875 C29.83802977 44.73269501 31.42345301 47.36351464 33 50 C33.556875 50.928125 34.11375 51.85625 34.6875 52.8125 C35.120625 53.534375 35.55375 54.25625 36 55 C32.02554023 53.48715536 30.4566179 51.19384123 28.12890625 47.70703125 C27.39534912 46.61197266 26.66179199 45.51691406 25.90600586 44.38867188 C25.12402977 43.19714412 24.34287821 42.00507488 23.5625 40.8125 C23.16692902 40.21429443 22.77135803 39.61608887 22.36380005 38.99975586 C3.46994611 10.40983833 3.46994611 10.40983833 0 0 Z " fill="#650EE2" transform="translate(445,359)"/>
<path d="M0 0 C0.66 0.33 1.32 0.66 2 1 C1.57835981 2.98260599 1.13721222 4.96107245 0.6875 6.9375 C0.44386719 8.03964844 0.20023438 9.14179687 -0.05078125 10.27734375 C-0.36402344 11.17582031 -0.67726563 12.07429687 -1 13 C-4.32604328 14.10868109 -6.75397414 14.06504234 -10.25 14 C-13.89887719 13.96363245 -17.19548304 14.02884176 -20.8125 14.5625 C-24.0477145 15.00654905 -26.74611798 14.68435312 -29.95703125 14.1875 C-32.12715593 13.98832986 -33.97435391 14.1722825 -36.125 14.5 C-40 15 -40 15 -42.875 14.5 C-45.87233026 14.02042716 -48.01326494 14.14337492 -51 14.5 C-54.89003811 14.96421905 -58.14927566 14.91201366 -62 14 C-62 13.67 -62 13.34 -62 13 C-54.47720229 12.21461326 -47.02199031 11.82242826 -39.4609375 11.71875 C-37.31380165 11.68101395 -35.16666625 11.64325284 -33.01953125 11.60546875 C-29.67270865 11.55152765 -26.32586508 11.49924408 -22.97900391 11.44775391 C-19.72290007 11.39626467 -16.46693531 11.33900186 -13.2109375 11.28125 C-11.69552872 11.26088684 -11.69552872 11.26088684 -10.14950562 11.2401123 C-9.22408966 11.22339478 -8.29867371 11.20667725 -7.34521484 11.18945312 C-6.52789886 11.17692505 -5.71058289 11.16439697 -4.86849976 11.15148926 C-2.98599595 11.20188021 -2.98599595 11.20188021 -2 10 C-1.79300437 8.50503158 -1.63320741 7.0033408 -1.5 5.5 C-1.11111111 1.11111111 -1.11111111 1.11111111 0 0 Z " fill="#7300DA" transform="translate(646,518)"/>
<path d="M0 0 C0.13277344 0.62648438 0.26554688 1.25296875 0.40234375 1.8984375 C0.57894531 2.71570313 0.75554688 3.53296875 0.9375 4.375 C1.11152344 5.18710937 1.28554688 5.99921875 1.46484375 6.8359375 C1.92330693 9.029463 1.92330693 9.029463 3 11 C2.4225 11.103125 1.845 11.20625 1.25 11.3125 C-1.11051916 11.88521263 -1.11051916 11.88521263 -3.0625 13.625 C-3.701875 14.07875 -4.34125 14.5325 -5 15 C-5.99 14.67 -6.98 14.34 -8 14 C-8 9.71 -8 5.42 -8 1 C-3 0 -3 0 0 0 Z " fill="#8517EB" transform="translate(666,555)"/>
<path d="M0 0 C0.66 0 1.32 0 2 0 C0.41616767 5.53893907 -2.15643568 10.30619856 -4.9375 15.3125 C-5.66078491 16.62069702 -5.66078491 16.62069702 -6.39868164 17.95532227 C-18.52974602 39.62621638 -18.52974602 39.62621638 -26 48 C-26.66 48 -27.32 48 -28 48 C-28 47.01 -28 46.02 -28 45 C-27.34 45 -26.68 45 -26 45 C-25.731875 44.236875 -25.46375 43.47375 -25.1875 42.6875 C-24.00907376 40.02053536 -23.00851945 39.00851945 -21 37 C-19.98308736 35.00854609 -18.98357352 33.00812926 -18 31 C-17.46375 30.29875 -16.9275 29.5975 -16.375 28.875 C-14.88102994 27.10341283 -14.88102994 27.10341283 -14.5625 25 C-14 23 -14 23 -12.29296875 21.484375 C-8.93943369 17.8509026 -6.97888291 13.6364934 -4.75 9.25 C-4.29109375 8.36183594 -3.8321875 7.47367187 -3.359375 6.55859375 C-2.2327651 4.37578706 -1.11326547 2.18963414 0 0 Z " fill="#6610EC" transform="translate(579,356)"/>
<path d="M0 0 C0 0.66 0 1.32 0 2 C-0.88300781 2.3403125 -1.76601563 2.680625 -2.67578125 3.03125 C-15.08125239 8.04140806 -26.41921099 14.18402356 -32.3125 26.8125 C-33.32418742 31.50305078 -33.67667087 36.21813227 -34 41 C-34.33 41 -34.66 41 -35 41 C-35.16843931 38.75013201 -35.33468654 36.50009983 -35.5 34.25 C-35.5928125 32.99703125 -35.685625 31.7440625 -35.78125 30.453125 C-35.93838402 27.97265229 -36 25.48544483 -36 23 C-35.01 22.67 -34.02 22.34 -33 22 C-31.79117904 19.99983534 -31.79117904 19.99983534 -31 18 C-30.34 18 -29.68 18 -29 18 C-29 17.01 -29 16.02 -29 15 C-24.65714286 11 -24.65714286 11 -22 11 C-21.67 10.01 -21.34 9.02 -21 8 C-18.88671875 7.0078125 -18.88671875 7.0078125 -16 6 C-12.9661299 4.68566346 -9.93339271 3.36934243 -6.90820312 2.03515625 C-2.22132851 0 -2.22132851 0 0 0 Z " fill="#310FA5" transform="translate(451,457)"/>
<path d="M0 0 C1.04542969 0.13664062 2.09085938 0.27328125 3.16796875 0.4140625 C4.42996094 0.57132812 5.69195313 0.72859375 6.9921875 0.890625 C10.39352954 1.35147417 13.78069475 1.86023084 17.16796875 2.4140625 C17.16796875 2.7440625 17.16796875 3.0740625 17.16796875 3.4140625 C15.06387236 3.44107658 12.95967697 3.46046473 10.85546875 3.4765625 C9.68371094 3.48816406 8.51195312 3.49976563 7.3046875 3.51171875 C4.16796875 3.4140625 4.16796875 3.4140625 1.16796875 2.4140625 C-3.88987729 1.92689306 -3.88987729 1.92689306 -8.26953125 4.1640625 C-10.21229512 6.50508816 -10.21229512 6.50508816 -9.83203125 10.4140625 C-8.86523438 10.37925781 -7.8984375 10.34445312 -6.90234375 10.30859375 C1.02872129 10.14369042 7.67544994 10.45231389 15.16796875 13.4140625 C15.16796875 13.7440625 15.16796875 14.0740625 15.16796875 14.4140625 C4.93796875 13.7540625 -5.29203125 13.0940625 -15.83203125 12.4140625 C-9.27942154 -0.69115691 -9.27942154 -0.69115691 0 0 Z " fill="#157CE9" transform="translate(567.83203125,429.5859375)"/>
<path d="M0 0 C2.475 0.99 2.475 0.99 5 2 C5 2.66 5 3.32 5 4 C8.3 4.66 11.6 5.32 15 6 C15 6.66 15 7.32 15 8 C16.3303125 7.938125 16.3303125 7.938125 17.6875 7.875 C20.99398971 7.9997732 23.01433976 8.67303989 26 10 C26.66 10 27.32 10 28 10 C28 10.66 28 11.32 28 12 C28.65226562 12.06058594 29.30453125 12.12117187 29.9765625 12.18359375 C34.68716217 12.63519991 39.34201638 13.14195039 44 14 C40.78054839 16.28044489 38.23353518 16.02599606 34.43896484 15.48803711 C29.5195119 14.50365408 24.80822337 12.85452052 20.0625 11.25 C19.02931641 10.91484375 17.99613281 10.5796875 16.93164062 10.234375 C10.5304544 8.09388968 4.76074596 5.52182162 -1 2 C-0.67 1.34 -0.34 0.68 0 0 Z " fill="#4418AD" transform="translate(403,553)"/>
<path d="M0 0 C1.41623216 -0.05447047 2.83308191 -0.09300508 4.25 -0.125 C5.03890625 -0.14820313 5.8278125 -0.17140625 6.640625 -0.1953125 C9.20731941 0.0171622 10.7916067 0.71345895 13 2 C12.67 2.99 12.34 3.98 12 5 C11.67 4.34 11.34 3.68 11 3 C10.34 3 9.68 3 9 3 C9 4.98 9 6.96 9 9 C7.02 9 5.04 9 3 9 C3 9.66 3 10.32 3 11 C2.34 11 1.68 11 1 11 C0.83197949 9.54182203 0.66562857 8.0834516 0.5 6.625 C0.4071875 5.81289063 0.314375 5.00078125 0.21875 4.1640625 C0 2 0 2 0 0 Z " fill="#8D23ED" transform="translate(682,556)"/>
<path d="M0 0 C9.57 0 19.14 0 29 0 C29 0.33 29 0.66 29 1 C20.09 1 11.18 1 2 1 C2 7.93 2 14.86 2 22 C1.34 22 0.68 22 0 22 C-1.05465751 17.04701583 -0.95470707 12.61906895 -0.5625 7.625 C-0.376875 5.10875 -0.19125 2.5925 0 0 Z " fill="#8E3CF0" transform="translate(656,523)"/>
<path d="M0 0 C1.32 0.33 2.64 0.66 4 1 C4 1.66 4 2.32 4 3 C4.99 3 5.98 3 7 3 C7.433125 4.093125 7.86625 5.18625 8.3125 6.3125 C9.53921659 9.16532928 10.65725917 10.92757542 13 13 C17.14814871 17.70870934 20.59461958 22.7339478 24 28 C23.67 28.66 23.34 29.32 23 30 C16.85280461 22.93314546 10.93469161 15.74399893 5.3125 8.25 C4.78366211 7.54681641 4.25482422 6.84363281 3.70996094 6.11914062 C0 1.13149573 0 1.13149573 0 0 Z " fill="#7D11DC" transform="translate(479,414)"/>
<path d="M0 0 C0.99 0.33 1.98 0.66 3 1 C3 1.66 3 2.32 3 3 C3.66 3 4.32 3 5 3 C5.66 4.98 6.32 6.96 7 9 C7.66 9 8.32 9 9 9 C9 9.66 9 10.32 9 11 C10.94999129 10.80528889 10.94999129 10.80528889 13 10 C13.68486725 8.67592331 14.34870203 7.34090759 15 6 C16.62626404 4.61767557 18.2925002 3.28062485 20 2 C20.66 1.34 21.32 0.68 22 0 C21.21675508 5.8082188 18.36821236 9.23398976 14 13 C10.9375 14 10.9375 14 8 13 C4.30799307 9.30799307 1.56188003 4.9980161 0 0 Z " fill="#7509EC" transform="translate(501,440)"/>
<path d="M0 0 C7.92 0 15.84 0 24 0 C24.33 0.99 24.66 1.98 25 3 C17.08 3 9.16 3 1 3 C0.67 2.01 0.34 1.02 0 0 Z " fill="#8200FE" transform="translate(659,519)"/>
<path d="M0 0 C1.48019816 1.9590858 2.94521988 3.92223741 4.359375 5.9296875 C9.79925744 13.53941069 15.50379682 18.1245389 24 22 C20.28272326 23.13583456 18.52948291 22.66670026 15 21 C15 20.34 15 19.68 15 19 C12.34771188 17.92474806 9.71631546 16.90543849 7 16 C4.8125 14.25 4.8125 14.25 3 12 C2.75 9.25 2.75 9.25 3 7 C2.34 6.67 1.68 6.34 1 6 C0 5 0 5 -0.0625 2.4375 C-0.041875 1.633125 -0.02125 0.82875 0 0 Z " fill="#2D0DA0" transform="translate(417,499)"/>
<path d="M0 0 C0.66 0.66 1.32 1.32 2 2 C1.57847656 2.45890625 1.15695312 2.9178125 0.72265625 3.390625 C-0.09912109 4.31101562 -0.09912109 4.31101562 -0.9375 5.25 C-1.48277344 5.85328125 -2.02804687 6.4565625 -2.58984375 7.078125 C-4.06212799 9.08467305 -4.57529189 10.57002449 -5 13 C-5.66 13 -6.32 13 -7 13 C-8.08284953 16.1712022 -9.09416142 19.33545007 -10 22.5625 C-11 26 -11 26 -12 28.4375 C-13.34900353 31.89432156 -14.14335718 35.38986239 -15 39 C-17.70768299 30.89588587 -12.70678575 21.87618334 -9.125 14.6875 C-8.79765869 14.03040039 -8.47031738 13.37330078 -8.13305664 12.69628906 C-5.78594861 8.15675184 -3.04623494 4.10233381 0 0 Z " fill="#3274E9" transform="translate(449,264)"/>
<path d="M0 0 C0.66 0.33 1.32 0.66 2 1 C-2.27066451 5.77309562 -2.27066451 5.77309562 -5.8125 6.875 C-9.77518603 8.27359507 -12.05199959 10.48301969 -15.0703125 13.34375 C-16.96557954 14.97045693 -18.72706954 15.98980868 -21 17 C-17.85438183 9.28206251 -8.79225797 4.6160299 -1.8125 0.71484375 C-1.214375 0.47894531 -0.61625 0.24304688 0 0 Z " fill="#28109E" transform="translate(401,453)"/>
<path d="M0 0 C6.11473956 2.02763065 9.11701581 6.0523266 13 11 C13.53625 11.6703125 14.0725 12.340625 14.625 13.03125 C19.38344861 20.06077636 18.44871907 27.87319904 18 36 C17.67 36 17.34 36 17 36 C16.97421875 35.16597656 16.9484375 34.33195312 16.921875 33.47265625 C16.33499295 21.82838282 13.06314965 12.46920298 4.28125 4.42578125 C2.87008867 3.26423572 1.43717059 2.12920547 0 1 C0 0.67 0 0.34 0 0 Z " fill="#386DE8" transform="translate(531,284)"/>
<path d="M0 0 C4.45006858 1.49648324 5.6665118 4.47548433 7.75 8.5 C8.67039062 10.24796875 8.67039062 10.24796875 9.609375 12.03125 C11 15 11 15 11 17 C11.66 17 12.32 17 13 17 C13.99 19.64 14.98 22.28 16 25 C12.28214284 23.76071428 11.99630229 22.75842067 10.1171875 19.4140625 C9.58996094 18.48335938 9.06273437 17.55265625 8.51953125 16.59375 C7.70548828 15.12421875 7.70548828 15.12421875 6.875 13.625 C6.32457031 12.65304687 5.77414062 11.68109375 5.20703125 10.6796875 C1.16044706 3.48134117 1.16044706 3.48134117 0 0 Z " fill="#5E20E6" transform="translate(445,359)"/>
<path d="M0 0 C9.9 0 19.8 0 30 0 C30 0.33 30 0.66 30 1 C26.37 1 22.74 1 19 1 C18.34 2.32 17.68 3.64 17 5 C16.67 4.34 16.34 3.68 16 3 C15.34 3 14.68 3 14 3 C14 2.34 14 1.68 14 1 C12.54077307 1.11409593 11.08259402 1.24165544 9.625 1.375 C8.81289063 1.44460938 8.00078125 1.51421875 7.1640625 1.5859375 C4.79665809 1.82892588 4.79665809 1.82892588 3 4 C2.01 4 1.02 4 0 4 C0 2.68 0 1.36 0 0 Z " fill="#7B00F4" transform="translate(658,545)"/>
<path d="M0 0 C0.33 0.66 0.66 1.32 1 2 C0.24074219 2.40992188 -0.51851563 2.81984375 -1.30078125 3.2421875 C-2.29464844 3.78101563 -3.28851563 4.31984375 -4.3125 4.875 C-5.29863281 5.40867187 -6.28476562 5.94234375 -7.30078125 6.4921875 C-10.09586458 8.00722126 -10.09586458 8.00722126 -13 10 C-15.6875 9.625 -15.6875 9.625 -18 9 C-15.25157976 5.49339487 -11.34064602 4.33574849 -7.3125 2.8125 C-6.2596582 2.40354492 -6.2596582 2.40354492 -5.18554688 1.98632812 C-3.45975765 1.31714455 -1.73023041 0.65761525 0 0 Z " fill="#3518A7" transform="translate(424,443)"/>
<path d="M0 0 C1.984375 1.17578125 1.984375 1.17578125 4 3 C4.390625 5.48046875 4.390625 5.48046875 4.25 8.1875 C4.21390625 9.08855469 4.1778125 9.98960937 4.140625 10.91796875 C4.09421875 11.60503906 4.0478125 12.29210937 4 13 C3.67 13 3.34 13 3 13 C2.67 15.31 2.34 17.62 2 20 C1.67 20 1.34 20 1 20 C0.663389 18.22978678 0.33082707 16.45880326 0 14.6875 C-0.185625 13.70136719 -0.37125 12.71523438 -0.5625 11.69921875 C-1 9 -1 9 -1 6 C-0.01 5.67 0.98 5.34 2 5 C1.34 3.35 0.68 1.7 0 0 Z " fill="#7718E6" transform="translate(688,517)"/>
<path d="M0 0 C0.66 0 1.32 0 2 0 C0.36036204 5.94615694 -2.62375462 11.03522078 -5.625 16.375 C-6.140625 17.30183594 -6.65625 18.22867187 -7.1875 19.18359375 C-8.45382811 21.45829425 -9.72475925 23.73028792 -11 26 C-11.78457034 23.72474602 -12.17171633 22.47190471 -11.33496094 20.17236328 C-10.97176758 19.56118652 -10.60857422 18.95000977 -10.234375 18.3203125 C-9.83863281 17.63839844 -9.44289063 16.95648438 -9.03515625 16.25390625 C-8.61105469 15.55136719 -8.18695312 14.84882813 -7.75 14.125 C-6.9310385 12.7325071 -6.11330925 11.33928866 -5.296875 9.9453125 C-4.90435547 9.28047852 -4.51183594 8.61564453 -4.10742188 7.93066406 C-2.62285073 5.34248315 -1.29682601 2.68628245 0 0 Z " fill="#5834E6" transform="translate(579,356)"/>
<path d="M0 0 C0 0.33 0 0.66 0 1 C-10.23 0.34 -20.46 -0.32 -31 -1 C-31 -1.33 -31 -1.66 -31 -2 C-20.48308938 -4.00014864 -10.0218746 -3.96158808 0 0 Z " fill="#0472EA" transform="translate(583,443)"/>
<path d="M0 0 C2.475 0.99 2.475 0.99 5 2 C5 2.66 5 3.32 5 4 C8.3 4.66 11.6 5.32 15 6 C15 6.66 15 7.32 15 8 C16.98 8 18.96 8 21 8 C21.33 8.66 21.66 9.32 22 10 C13.12308677 9.84694977 6.62315884 6.15315766 -1 2 C-0.67 1.34 -0.34 0.68 0 0 Z " fill="#3514A1" transform="translate(403,553)"/>
<path d="M0 0 C3.56783061 1.98212812 6.13018125 4.13018125 9 7 C10.010625 7.66 11.02125 8.32 12.0625 9 C14.75801794 10.83524626 16.25894879 12.29169813 18 15 C13.99461279 13.61462414 11.14296986 11.74583305 7.875 9.0625 C7.02679688 8.37285156 6.17859375 7.68320312 5.3046875 6.97265625 C1.48458904 3.70291096 1.48458904 3.70291096 0 2 C0 1.34 0 0.68 0 0 Z " fill="#261298" transform="translate(375,534)"/>
<path d="M0 0 C0.66 0.33 1.32 0.66 2 1 C1.57835981 2.98260599 1.13721222 4.96107245 0.6875 6.9375 C0.44386719 8.03964844 0.20023438 9.14179687 -0.05078125 10.27734375 C-0.36402344 11.17582031 -0.67726563 12.07429687 -1 13 C-4.54674003 14.18224668 -6.97522995 13.89329634 -10.6875 13.5625 C-11.86699219 13.46066406 -13.04648437 13.35882812 -14.26171875 13.25390625 C-15.16535156 13.17011719 -16.06898438 13.08632813 -17 13 C-17 12.67 -17 12.34 -17 12 C-16.00097656 11.93941406 -15.00195312 11.87882813 -13.97265625 11.81640625 C-12.03712891 11.69072266 -12.03712891 11.69072266 -10.0625 11.5625 C-8.77472656 11.48128906 -7.48695313 11.40007813 -6.16015625 11.31640625 C-3.13976043 11.35080812 -3.13976043 11.35080812 -2 10 C-1.79300437 8.50503158 -1.63320741 7.0033408 -1.5 5.5 C-1.11111111 1.11111111 -1.11111111 1.11111111 0 0 Z " fill="#8317E1" transform="translate(646,518)"/>
<path d="M0 0 C0.66 0 1.32 0 2 0 C1.79503906 0.59425781 1.59007812 1.18851562 1.37890625 1.80078125 C-0.70359978 8.20772565 -1.62963678 14.28237754 -2 21 C-2.33 21 -2.66 21 -3 21 C-3.16843931 18.75013201 -3.33468654 16.50009983 -3.5 14.25 C-3.5928125 12.99703125 -3.685625 11.7440625 -3.78125 10.453125 C-3.93838402 7.97265229 -4 5.48544483 -4 3 C-3.01 2.67 -2.02 2.34 -1 2 C-0.67 1.34 -0.34 0.68 0 0 Z " fill="#1F049F" transform="translate(419,477)"/>
<path d="M0 0 C5.24972347 4.10037573 9.20962911 8.52964787 13 14 C10.6875 13.8125 10.6875 13.8125 8 13 C5 8.96551724 5 8.96551724 5 6 C4.360625 5.7525 3.72125 5.505 3.0625 5.25 C1 4 1 4 0.37109375 1.921875 C0.24863281 1.28765625 0.12617188 0.6534375 0 0 Z " fill="#3716AB" transform="translate(468,435)"/>
<path d="M0 0 C0 0.66 0 1.32 0 2 C-6.48129797 4.50413785 -12.18491136 3.82810601 -19 3 C-19 2.67 -19 2.34 -19 2 C-16.95928485 1.66089006 -14.91737379 1.32897296 -12.875 1 C-11.73804688 0.814375 -10.60109375 0.62875 -9.4296875 0.4375 C-6.23862398 0.03043951 -3.21182209 -0.07809902 0 0 Z " fill="#7410E6" transform="translate(691,571)"/>
<path d="M0 0 C1.65 0 3.3 0 5 0 C5.33 1.98 5.66 3.96 6 6 C3.69 6 1.38 6 -1 6 C-0.67 4.02 -0.34 2.04 0 0 Z " fill="#F4DEFE" transform="translate(685,558)"/>
<path d="M0 0 C0.66 0 1.32 0 2 0 C2.04898438 0.60328125 2.09796875 1.2065625 2.1484375 1.828125 C2.22320313 2.62734375 2.29796875 3.4265625 2.375 4.25 C2.44460938 5.03890625 2.51421875 5.8278125 2.5859375 6.640625 C3.01507113 9.085877 3.78600638 10.84836903 5 13 C3.35 12.67 1.7 12.34 0 12 C-0.92844389 7.66726186 -0.92844389 4.33273814 0 0 Z " fill="#6D0CE5" transform="translate(619,559)"/>
<path d="M0 0 C-0.66 1.32 -1.32 2.64 -2 4 C-4.97 3.505 -4.97 3.505 -8 3 C-8 2.34 -8 1.68 -8 1 C-8.99 0.67 -9.98 0.34 -11 0 C-6.98195309 -0.84098656 -3.98196457 -1.05404945 0 0 Z " fill="#4F23C3" transform="translate(469,434)"/>
<path d="M0 0 C1.65 0 3.3 0 5 0 C5 1.98 5 3.96 5 6 C3.35 6 1.7 6 0 6 C0 4.02 0 2.04 0 0 Z " fill="#FBDAFE" transform="translate(660,558)"/>
<path d="M0 0 C-1.0838377 2.7588596 -2.01308965 4.01033393 -4.375 5.875 C-7.32400764 8.2622919 -9.02584869 10.78286452 -11 14 C-11.33 13.01 -11.66 12.02 -12 11 C-10.671875 9.0625 -10.671875 9.0625 -8.75 7 C-8.12609375 6.319375 -7.5021875 5.63875 -6.859375 4.9375 C-6.24578125 4.298125 -5.6321875 3.65875 -5 3 C-4.46890625 2.4225 -3.9378125 1.845 -3.390625 1.25 C-2 0 -2 0 0 0 Z " fill="#246CEE" transform="translate(493,284)"/>
<path d="M0 0 C0.99 0.495 0.99 0.495 2 1 C2.51953125 2.9609375 2.51953125 2.9609375 2.8125 5.375 C2.97685547 6.56222656 2.97685547 6.56222656 3.14453125 7.7734375 C3 10 3 10 0 13 C0 8.71 0 4.42 0 0 Z " fill="#6903F7" transform="translate(690,529)"/>
<path d="M0 0 C6.93 3.96 6.93 3.96 14 8 C9.70600835 9.07349791 8.80504787 8.79682816 5 7 C5 6.34 5 5.68 5 5 C2.525 4.01 2.525 4.01 0 3 C0 2.01 0 1.02 0 0 Z " fill="#3516A2" transform="translate(427,513)"/>
<path d="M0 0 C-1.45546502 3.39608504 -3.40860299 5.40860299 -6 8 C-7.23512079 10.13309192 -7.23512079 10.13309192 -8 12 C-8.66 12 -9.32 12 -10 12 C-8.73050758 7.810675 -4.99190297 0 0 0 Z " fill="#CFE7FD" transform="translate(491,288)"/>
<path d="M0 0 C1.01320313 0.61488281 1.01320313 0.61488281 2.046875 1.2421875 C2.93890625 1.78101563 3.8309375 2.31984375 4.75 2.875 C5.63171875 3.40867187 6.5134375 3.94234375 7.421875 4.4921875 C9.58274093 5.75596666 11.74570395 6.91498835 14 8 C11.36 8 8.72 8 6 8 C6 7.34 6 6.68 6 6 C5.38125 5.690625 4.7625 5.38125 4.125 5.0625 C2.75 4.375 1.375 3.6875 0 3 C0 2.01 0 1.02 0 0 Z " fill="#4743EA" transform="translate(489,341)"/>
<path d="M0 0 C0.66 0 1.32 0 2 0 C1.52389341 4.99911924 -0.03162219 7.97832683 -3 12 C-3.66 11.01 -4.32 10.02 -5 9 C-4.0409375 7.88625 -4.0409375 7.88625 -3.0625 6.75 C-1.21666593 4.2888879 -0.43930826 2.96533074 0 0 Z " fill="#631FF1" transform="translate(565,379)"/>
<path d="M0 0 C0.66 0.66 1.32 1.32 2 2 C1.57847656 2.45890625 1.15695312 2.9178125 0.72265625 3.390625 C-0.09912109 4.31101562 -0.09912109 4.31101562 -0.9375 5.25 C-1.48277344 5.85328125 -2.02804687 6.4565625 -2.58984375 7.078125 C-4.06212799 9.08467305 -4.57529189 10.57002449 -5 13 C-5.66 13 -6.32 13 -7 13 C-7.33 13.66 -7.66 14.32 -8 15 C-7.4520917 10.7170548 -5.97567196 8.14864359 -3.4375 4.6875 C-2.79683594 3.80449219 -2.15617187 2.92148437 -1.49609375 2.01171875 C-0.75552734 1.01591797 -0.75552734 1.01591797 0 0 Z " fill="#1D7DE9" transform="translate(449,264)"/>
<path d="M0 0 C2.63029739 2.37979288 4.24544457 4.92952799 6 8 C6.556875 8.928125 7.11375 9.85625 7.6875 10.8125 C8.120625 11.534375 8.55375 12.25625 9 13 C4.6180876 11.53936253 2.05288059 7.98797296 0 4 C0 2.68 0 1.36 0 0 Z " fill="#710CE4" transform="translate(472,401)"/>
<path d="M0 0 C0.66 0.33 1.32 0.66 2 1 C2.625 3.0625 2.625 3.0625 3 5 C0.01758453 5.77321882 -2.97580475 6.41196203 -6 7 C-6 6.01 -6 5.02 -6 4 C-4.35 3.67 -2.7 3.34 -1 3 C-0.67 2.01 -0.34 1.02 0 0 Z " fill="#7100EF" transform="translate(666,561)"/>
<path d="M0 0 C-0.6875 1.9375 -0.6875 1.9375 -2 4 C-4.625 4.75 -4.625 4.75 -7 5 C-7 4.01 -7 3.02 -7 2 C-4.35261084 0.5393715 -3.10551666 0 0 0 Z " fill="#2C09AE" transform="translate(414,448)"/>
<path d="M0 0 C1.32 0.33 2.64 0.66 4 1 C4 1.66 4 2.32 4 3 C4.99 3 5.98 3 7 3 C7.33 3.99 7.66 4.98 8 6 C7.01 6.66 6.02 7.32 5 8 C2.525 4.04 2.525 4.04 0 0 Z " fill="#8717E2" transform="translate(479,414)"/>
<path d="M0 0 C4.95 0 9.9 0 15 0 C12.80036434 2.19963566 12.00652461 2.57049648 9 3 C5.40599503 2.55074938 3.33211003 1.66605502 0 0 Z " fill="#6500DF" transform="translate(564,531)"/>
<path d="M0 0 C0.598125 0.226875 1.19625 0.45375 1.8125 0.6875 C-1.06837546 3.08822955 -3.75154834 5.16041037 -7.1875 6.6875 C-3.9375 -0.5625 -3.9375 -0.5625 0 0 Z " fill="#1C089B" transform="translate(387.1875,463.3125)"/>
<path d="M0 0 C0.33 0 0.66 0 1 0 C2.25 6.625 2.25 6.625 0 10 C-2.625 10.1875 -2.625 10.1875 -5 10 C-4.360625 9.278125 -3.72125 8.55625 -3.0625 7.8125 C-1.01326465 5.01808816 -0.38667054 3.38336726 0 0 Z " fill="#8109E4" transform="translate(636,563)"/>
<path d="M0 0 C0 0.99 0 1.98 0 3 C-0.99 3.66 -1.98 4.32 -3 5 C-4.19232613 7.05003955 -4.19232613 7.05003955 -5 9 C-5.66 9 -6.32 9 -7 9 C-5.64978174 4.58110387 -3.73884332 2.65654657 0 0 Z " fill="#193254" transform="translate(526,624)"/>
<path d="M0 0 C1.98 0.495 1.98 0.495 4 1 C2.515 4.465 2.515 4.465 1 8 C0.34 8 -0.32 8 -1 8 C-0.67 5.36 -0.34 2.72 0 0 Z " fill="#2D2098" transform="translate(363,491)"/>
<path d="M0 0 C0.33 1.32 0.66 2.64 1 4 C-0.9375 6.75 -0.9375 6.75 -3 9 C-3.99 8.67 -4.98 8.34 -6 8 C-4.02 5.36 -2.04 2.72 0 0 Z " fill="#6B0AEF" transform="translate(535,424)"/>
<path d="M0 0 C0.99 0 1.98 0 3 0 C6.22265625 5.17578125 6.22265625 5.17578125 7 7 C6.67 7.99 6.34 8.98 6 10 C4.99723227 8.52270825 3.99785546 7.04311423 3 5.5625 C2.443125 4.73878906 1.88625 3.91507812 1.3125 3.06640625 C0 1 0 1 0 0 Z " fill="#7221DF" transform="translate(459,384)"/>
<path d="M0 0 C4 2 4 2 5.25 5.125 C5.4975 6.07375 5.745 7.0225 6 8 C5.01 8.495 5.01 8.495 4 9 C2.68 6.03 1.36 3.06 0 0 Z " fill="#6341E8" transform="translate(445,359)"/>
<path d="M0 0 C0.33 0.66 0.66 1.32 1 2 C2.32 2 3.64 2 5 2 C5.33 1.34 5.66 0.68 6 0 C6.66 0.99 7.32 1.98 8 3 C4.7 3.33 1.4 3.66 -2 4 C-1.34 2.68 -0.68 1.36 0 0 Z " fill="#4D17B7" transform="translate(476,450)"/>
<path d="M0 0 C1.65 0 3.3 0 5 0 C4.34 1.32 3.68 2.64 3 4 C2.01 4 1.02 4 0 4 C0 2.68 0 1.36 0 0 Z " fill="#8900F9" transform="translate(658,545)"/>
<path d="M0 0 C1.98 0 3.96 0 6 0 C5 2 5 2 2.625 3.1875 C0 4 0 4 -3 3 C-2.34 3 -1.68 3 -1 3 C-0.67 2.01 -0.34 1.02 0 0 Z " fill="#2F09B1" transform="translate(433,440)"/>
</svg>
